<svg width="25" height="24" viewBox="0 0 25 24" fill="none" xmlns="http://www.w3.org/2000/svg">
<path d="M16.134 8.26208L15.7517 9.1861L16.134 8.26208ZM20.685 19.524C21.1954 19.7352 21.7802 19.4927 21.9914 18.9824C22.2026 18.4721 21.9601 17.8872 21.4497 17.676L20.685 19.524ZM4.04974 10.476C3.53941 10.2648 2.95453 10.5074 2.74337 11.0177C2.5322 11.528 2.77471 12.1129 3.28503 12.324L4.04974 10.476ZM6.45562 3.40002H18.8791V1.40002H6.45562V3.40002ZM18.8791 20.6H6.45562V22.6H18.8791V20.6ZM4.06738 18.2118V5.78826H2.06738V18.2118H4.06738ZM6.45562 20.6C5.13663 20.6 4.06738 19.5308 4.06738 18.2118H2.06738C2.06738 20.6353 4.03206 22.6 6.45562 22.6V20.6ZM21.2674 18.2118C21.2674 19.5308 20.1981 20.6 18.8791 20.6V22.6C21.3027 22.6 23.2674 20.6353 23.2674 18.2118H21.2674ZM18.8791 3.40002C20.1981 3.40002 21.2674 4.46927 21.2674 5.78826H23.2674C23.2674 3.3647 21.3027 1.40002 18.8791 1.40002V3.40002ZM6.45562 1.40002C4.03206 1.40002 2.06738 3.3647 2.06738 5.78826H4.06738C4.06738 4.46927 5.13663 3.40002 6.45562 3.40002V1.40002ZM21.2674 10.8V18.2118H23.2674V10.8H21.2674ZM4.48503 4.52404L15.7517 9.1861L16.5164 7.33806L5.24973 2.67601L4.48503 4.52404ZM15.7517 9.1861L21.885 11.724L22.6497 9.87601L16.5164 7.33806L15.7517 9.1861ZM17.9925 2.5375L15.2474 7.79955L17.0206 8.72461L19.7658 3.46255L17.9925 2.5375ZM21.4497 17.676L4.04974 10.476L3.28503 12.324L20.685 19.524L21.4497 17.676ZM21.2674 5.78826V10.8H23.2674V5.78826H21.2674Z" fill="#E2B672"/>
</svg>
