<svg width="20" height="20" viewBox="0 0 20 20" fill="none" xmlns="http://www.w3.org/2000/svg">
<path d="M5.58676 2.79218C5.46464 2.6703 5.27 2.52557 5.02957 2.52557C4.83493 2.52557 4.63647 2.62079 4.44947 2.79599L3.14807 4.09472C2.83131 4.41084 2.65957 4.78027 2.62141 5.22588C2.56416 5.92286 2.69392 6.66173 3.04885 7.61008C3.62513 9.16399 4.49527 10.6113 5.79667 12.1766C7.37284 14.0543 9.2696 15.5358 11.4297 16.5794C12.2197 16.9564 13.273 17.3982 14.4065 17.4706C14.4637 17.4744 14.5248 17.4744 14.5821 17.4744C15.1774 17.4744 15.6316 17.2802 16.017 16.8688C16.2536 16.5908 17.2192 15.6425 17.2192 15.6425C17.2192 15.6425 17.6085 14.8388 17.2154 14.4504L15.1125 12.3518M5.58676 2.79218C5.59058 2.79599 5.5944 2.79979 5.59821 2.8036M5.58676 2.79218L5.59821 2.8036M5.59821 2.8036C5.83101 3.02069 6.05236 3.2454 6.28517 3.48535C6.40347 3.60722 6.5256 3.7291 6.64773 3.85478L7.68961 4.89453C8.09415 5.29825 8.09415 5.67149 7.68961 6.07521C7.57893 6.18566 7.47207 6.2961 7.36139 6.40275C7.04082 6.73029 7.29265 6.47897 6.96062 6.77604C6.95299 6.78366 6.94535 6.78747 6.94154 6.79508C6.61333 7.12262 6.67439 7.44255 6.74309 7.65964M6.74309 7.65964C6.7469 7.67106 6.75072 7.68249 6.75453 7.69392M6.74309 7.65964L6.75453 7.69392M6.75453 7.69392C7.0255 8.349 7.40714 8.96599 7.98724 9.70106L7.99105 9.70487C9.04438 10.9998 10.155 12.0091 11.38 12.7822C11.5365 12.8813 11.6968 12.9612 11.8494 13.0374C11.9868 13.106 12.1166 13.1707 12.2273 13.2393C12.2425 13.2469 12.2578 13.2583 12.2731 13.2659C12.4028 13.3307 12.525 13.3611 12.6509 13.3611C12.9677 13.3611 13.1661 13.1631 13.231 13.0983L13.9791 12.3518C14.1088 12.2223 14.3149 12.0662 14.5553 12.0662C14.792 12.0662 14.9866 12.2147 15.1049 12.3442M15.1049 12.3442C15.1087 12.348 15.1087 12.348 15.1125 12.3518M15.1049 12.3442L15.1125 12.3518" stroke="#1D7D4A" stroke-width="2" stroke-linecap="round" stroke-linejoin="round"/>
</svg>
