<svg width="180" height="70" viewBox="0 0 180 70" fill="none" xmlns="http://www.w3.org/2000/svg">
<g clip-path="url(#clip0_6_11)">
<path fill-rule="evenodd" clip-rule="evenodd" d="M130.154 28.9664L130 28.9175L128.757 28.8198L128.464 29.0223L127.668 30.3631C126.976 31.655 126.222 32.2555 124.337 32.2555H118.422C118.017 32.2555 117.723 31.9552 117.723 31.6061V23.5125C117.723 23.1145 118.017 22.87 118.422 22.87H122.004C124.295 22.87 124.735 23.5614 125.384 24.7066L125.628 25.1536L125.978 25.3491L127.27 25.2513L127.374 25.2024V25.0558L126.229 20.5376L125.985 20.384H118.429C118.024 20.384 117.73 20.0837 117.73 19.6927V13.2821C117.73 12.9329 118.024 12.6396 118.429 12.6396H123.303C124.895 12.6396 125.992 12.9329 126.683 14.5251L127.43 15.9147L127.779 16.1103L129.022 16.0125L129.12 15.9636L129.169 15.81L127.779 10.3491L127.535 10.1536H110.077L109.728 10.3491L109.225 11.4455V11.5921L109.378 11.641C110.719 11.641 111.816 12.1368 111.816 13.8756V34.1829C111.816 34.5809 112.165 34.7276 112.465 34.7276H128.527L128.771 34.5809L130.168 29.0712V28.9734L130.154 28.9664Z" fill="#1D7D4A"/>
<path fill-rule="evenodd" clip-rule="evenodd" d="M59.176 25.6913H51.9693L55.2514 18.1424C55.3492 17.898 55.5517 17.8421 55.6494 17.8421C55.7472 17.8421 55.9497 17.8421 56.0964 18.1424L59.176 25.6913ZM71.1173 33.3379L71.0195 33.2821C69.6788 33.2821 68.5824 32.5348 68.0377 31.2988L59.3785 10.3491L59.0293 10.1536H52.5628L52.2137 10.3491L51.7179 11.4455L51.7668 11.5432L51.8645 11.5921C53.5545 11.5921 54.595 12.486 53.7011 14.2248L44.7486 34.5809V34.6787L44.8952 34.7276H50.9637L51.3128 34.5321L51.7598 33.4916V33.3449L51.6131 33.289C49.5251 33.289 48.9804 32.4441 49.7765 30.8589L50.9218 28.1284H60.1746L62.8073 34.5321L63.1564 34.7276H70.3212L70.6704 34.5321L71.1173 33.4916V33.3449V33.3379Z" fill="#1D7D4A"/>
<path fill-rule="evenodd" clip-rule="evenodd" d="M36.8505 33.3379L36.7528 33.2821C35.1117 33.2821 34.4134 32.8351 33.9176 31.5991L25.1117 10.3491L24.8114 10.1536H18.1494L17.8003 10.3491L17.2975 11.4455V11.5432L17.4511 11.5921H17.6047C18.8478 11.5921 20.0419 12.6326 19.2458 14.574L10.6913 34.0781C10.6913 34.127 10.4399 34.7276 11.1383 34.7276H16.8575L17.2067 34.5321L17.7025 33.4916L17.6536 33.3449L17.5559 33.289H17.4092C14.9721 33.289 14.9721 32.1019 15.5726 30.7122L20.9846 18.1424C21.1383 17.898 21.2849 17.8421 21.4316 17.8421C21.4804 17.8421 21.7318 17.8421 21.8296 18.1424L28.5964 34.5251L28.8966 34.7206H36.0614L36.4106 34.5251L36.9064 33.4846L36.8575 33.3379H36.8505Z" fill="#1D7D4A"/>
<path fill-rule="evenodd" clip-rule="evenodd" d="M87.926 12.2346H88.4218C92.1997 12.2835 94.0922 13.9735 94.0922 17.1439C94.0922 21.6131 90.3632 22.6117 88.771 22.8561C88.324 22.905 87.9749 22.905 87.926 22.905C87.4302 22.905 87.0321 22.5628 87.0321 22.1648V13.0307C87.0321 12.6327 87.4302 12.2346 87.926 12.2346ZM87.926 25.2933H88.3729C93.743 25.0489 100.161 22.8142 100.161 17.2486C100.161 12.4302 95.9847 10 89.1201 10H88.5754C88.2263 10 87.8771 10.0489 87.528 10.0489C86.0894 10.0978 84.4483 10.1466 82.7514 10.1466H79.3715L79.0224 10.3422L78.5754 11.4385V11.5852L78.6732 11.6341C80.021 11.6341 81.1592 12.1299 81.1592 13.8687V34.176C81.1592 34.574 81.5084 34.7207 81.7528 34.7207H88.8199L89.162 34.5251L89.609 33.4288V33.331L89.5112 33.2751C88.1215 33.2751 87.0182 32.7793 87.0182 31.0475V26.0824C87.0182 25.6355 87.4162 25.2863 87.912 25.2863L87.926 25.2933Z" fill="#1D7D4A"/>
<path fill-rule="evenodd" clip-rule="evenodd" d="M168.848 32.3952L168.743 32.2974H166.159C165.817 32.2974 165.063 32.2485 165.063 31.208V10.7471C165.063 10.3002 164.721 10.1536 164.42 10.1536H157.409L157.06 10.3491L156.557 11.4455L156.613 11.5921L156.718 11.641C158.059 11.641 159.155 12.1368 159.155 13.8756V31.6969C159.155 32.1438 158.806 32.493 158.303 32.493H149.504C149.001 32.493 148.61 32.1438 148.61 31.6969V10.7471C148.61 10.3002 148.261 10.1536 147.961 10.1536H140.95L140.608 10.3491L140.105 11.4455V11.5921L140.258 11.641C141.606 11.641 142.696 12.1368 142.696 13.8756V34.1829C142.696 34.5809 143.038 34.7276 143.345 34.7276H163.338C163.98 34.7276 164.525 34.979 164.93 35.4259C165.279 35.824 165.433 36.3686 165.223 36.9622L164.574 39.4902L164.623 39.6368L164.728 39.6857H166.173L166.466 39.4832L168.904 32.486L168.855 32.3812L168.848 32.3952Z" fill="#1D7D4A"/>
<path d="M158.687 48.31H161.18V54.7556H157.228C158.17 53.0028 158.52 50.6634 158.687 48.31ZM155.251 60V57.507H163.156V60H165.908V54.7556H164.358V45.4748H155.761C155.761 48.6522 155.419 52.0042 153.869 54.7556H152.493V60H155.244H155.251ZM137.891 49.6019C137.891 50.6843 137.032 50.9776 136.068 50.9776H134.33V48.2262H136.068C137.032 48.2262 137.891 48.5195 137.891 49.6019ZM131.152 45.4748V57.507H134.33V53.722H135.908C138.883 53.7081 141.152 52.7584 141.152 49.5949C141.152 46.4315 138.883 45.4679 135.908 45.4679H131.145L131.152 45.4748ZM112.64 49.567C112.744 49.2737 112.849 48.9804 112.947 48.3449C113.052 48.9804 113.156 49.2737 113.254 49.567L114.49 53.0377H111.397L112.633 49.567H112.64ZM109.77 57.507L110.454 55.6145H115.44L116.124 57.507H119.392L114.665 45.4748H111.229L106.501 57.507H109.77ZM88.5126 54.7556V52.486H90.852C91.5922 52.486 92.2067 52.6955 92.2067 53.6173C92.2067 54.5391 91.5852 54.7486 90.852 54.7486H88.5126V54.7556ZM88.5126 49.7346V48.31H94.4623V45.4748H85.3352V57.507H90.8869C93.331 57.507 95.4749 56.6271 95.4749 53.6243C95.4749 50.6215 93.324 49.7416 90.8869 49.7416H88.5126V49.7346ZM69.4553 45.4679L65.7961 51.1033L62.1369 45.4679H59.1271V57.5H62.3045V51.0894L64.8813 55.0628H66.7039L69.2807 51.1103V57.507H72.4581V45.4748H69.4483L69.4553 45.4679ZM43.5894 51.4874C43.5894 53.4148 42.486 54.8394 40.412 54.8394C38.338 54.8394 37.2346 53.4148 37.2346 51.4874C37.2346 49.56 38.338 48.1355 40.412 48.1355C42.486 48.1355 43.5894 49.56 43.5894 51.4874ZM33.9595 51.4874C33.9595 54.8394 36.1103 57.7653 40.405 57.7653C44.6997 57.7653 46.8506 54.8394 46.8506 51.4874C46.8506 48.1355 44.6997 45.2095 40.405 45.2095C36.1103 45.2095 33.9595 48.1285 33.9595 51.4874ZM13.0098 45.4748C12.7374 49.1201 12.7723 54.5181 10.824 54.7206C10.4958 54.7556 10.2235 54.7206 10 54.6508V57.4162C10.5307 57.5908 11.0335 57.6536 11.4804 57.6536C14.9372 57.6396 15.5377 53.2332 15.9148 48.303H18.5126V57.5H21.6899V45.4679H13.0098V45.4748Z" fill="#1D7D4A"/>
</g>
<defs>
<clipPath id="clip0_6_11">
<rect width="158.897" height="50" fill="white" transform="translate(10 10)"/>
</clipPath>
</defs>
</svg>
