<svg width="24" height="24" viewBox="0 0 24 24" fill="none" xmlns="http://www.w3.org/2000/svg">
<path d="M6.70443 3.35069C6.55788 3.20443 6.32432 3.03076 6.03579 3.03076C5.80223 3.03076 5.56409 3.14502 5.33968 3.35526L3.778 4.91374C3.39789 5.29308 3.1918 5.7364 3.14601 6.27113C3.07731 7.1075 3.23302 7.99415 3.65893 9.13217C4.35047 10.9969 5.39464 12.7336 6.95631 14.612C8.84773 16.8652 11.1238 18.643 13.7159 19.8953C14.6639 20.3478 15.9279 20.8779 17.2881 20.9648C17.3568 20.9693 17.4301 20.9693 17.4988 20.9693C18.2132 20.9693 18.7582 20.7363 19.2207 20.2427C19.5047 19.909 20.6633 18.771 20.6633 18.771C20.6633 18.771 21.1305 17.8067 20.6588 17.3405L18.1354 14.8222M6.70443 3.35069C6.70901 3.35526 6.71359 3.35983 6.71817 3.3644M6.70443 3.35069L6.71817 3.3644M6.71817 3.3644C6.99753 3.62491 7.26315 3.89456 7.54251 4.18249C7.68449 4.32874 7.83104 4.47499 7.97759 4.62581L9.22784 5.87351C9.71329 6.35797 9.71329 6.80586 9.22784 7.29032C9.09503 7.42286 8.9668 7.5554 8.83399 7.68337C8.4493 8.07642 8.7515 7.77483 8.35306 8.13132C8.3439 8.14046 8.33474 8.14503 8.33016 8.15417C7.93631 8.54722 8.00958 8.93113 8.09202 9.19164M8.09202 9.19164C8.0966 9.20535 8.10118 9.21906 8.10576 9.23277M8.09202 9.19164L8.10576 9.23277M8.10576 9.23277C8.43092 10.0189 8.88889 10.7593 9.585 11.6413L9.58958 11.6459C10.8536 13.1998 12.1863 14.411 13.6564 15.3387C13.8441 15.4576 14.0365 15.5536 14.2197 15.645C14.3845 15.7272 14.5402 15.8049 14.673 15.8872C14.6914 15.8963 14.7097 15.91 14.728 15.9192C14.8837 15.9969 15.0303 16.0334 15.1814 16.0334C15.5615 16.0334 15.7997 15.7958 15.8775 15.7181L16.7752 14.8222C16.9309 14.6668 17.1782 14.4795 17.4667 14.4795C17.7507 14.4795 17.9842 14.6577 18.1262 14.8131M18.1262 14.8131C18.1308 14.8177 18.1308 14.8177 18.1354 14.8222M18.1262 14.8131L18.1354 14.8222" stroke="#1D7D4A" stroke-width="2" stroke-linecap="round" stroke-linejoin="round"/>
</svg>
