<svg width="20" height="20" viewBox="0 0 20 20" fill="none" xmlns="http://www.w3.org/2000/svg">
<g clip-path="url(#clip0_144_2757)">
<path fill-rule="evenodd" clip-rule="evenodd" d="M18.6497 1.94321L0.93367 8.7324C-0.275478 9.21441 -0.268307 9.88449 0.713275 10.1833L5.13171 11.5535L6.8223 16.7034C7.02783 17.2671 6.92652 17.4906 7.52224 17.4906C7.98198 17.4906 8.18593 17.2824 8.44198 17.0338C8.60481 16.8755 9.57159 15.9416 10.6511 14.8988L15.2471 18.2727C16.0928 18.7363 16.7034 18.4962 16.914 17.4923L19.931 3.36683C20.2398 2.13643 19.4589 1.57833 18.6497 1.94321ZM5.8252 11.2383L15.7844 4.99539C16.2815 4.69581 16.7374 4.85688 16.3631 5.18698L7.83546 12.8316L7.50342 16.3503L5.8252 11.2383Z" fill="#1D7D4A"/>
</g>
<defs>
<clipPath id="clip0_144_2757">
<rect width="20" height="20" fill="white"/>
</clipPath>
</defs>
</svg>
