<svg width="20" height="20" viewBox="0 0 20 20" fill="none" xmlns="http://www.w3.org/2000/svg">
<g clip-path="url(#clip0_44_479)">
<path fill-rule="evenodd" clip-rule="evenodd" d="M3.21429 2.85714C5.14882 0.952371 7.47023 0 10.1786 0C12.8869 0 15.2009 0.944932 17.1205 2.83482C19.0402 4.72471 20 7.0238 20 9.73214C20 12.4405 19.0402 14.7396 17.1205 16.6295C15.2009 18.5194 12.8869 19.4643 10.1786 19.4643C8.54166 19.4643 6.96429 19.0625 5.44643 18.2589L0 20L1.78571 14.7768C0.833329 13.1994 0.357143 11.5179 0.357143 9.73214C0.357143 7.0238 1.30951 4.73215 3.21429 2.85714ZM15.0446 13.4375C15.2827 12.8423 15.3571 12.4554 15.2679 12.2768C15.2381 12.2173 15.0744 12.1131 14.7768 11.9643C14.7173 11.9345 14.4494 11.7857 13.9732 11.5179C13.497 11.25 13.2143 11.1012 13.125 11.0714C12.8869 10.9821 12.6935 11.0268 12.5446 11.2054C12.4851 11.2649 12.3438 11.4211 12.1205 11.6741C11.8973 11.9271 11.756 12.0833 11.6964 12.1429C11.5774 12.2917 11.3988 12.3065 11.1607 12.1875C10.3869 11.8006 9.73215 11.3542 9.19643 10.8482C8.60119 10.2827 8.15476 9.70238 7.85714 9.10714C7.76786 8.92857 7.8125 8.75 7.99107 8.57143L8.39286 8.16964C8.48214 8.08036 8.57143 7.94643 8.66071 7.76786C8.72024 7.64881 8.72024 7.5 8.66071 7.32143C8.66071 7.29167 8.60863 7.15774 8.50446 6.91964C8.4003 6.68155 8.29613 6.41369 8.19197 6.11607C8.0878 5.81845 8.00595 5.59524 7.94643 5.44643C7.82738 5.11905 7.63393 4.95536 7.36607 4.95536H6.91964C6.68155 4.95536 6.45833 5.05952 6.25 5.26786C5.625 5.89286 5.29762 6.57738 5.26786 7.32143C5.23809 8.18453 5.55059 9.04761 6.20536 9.91071L6.33929 10.0893C6.42857 10.2381 6.53274 10.4018 6.65179 10.5804C6.77083 10.7589 6.91964 10.9673 7.09821 11.2054C7.27679 11.4435 7.48512 11.6815 7.72321 11.9196C7.96131 12.1577 8.20684 12.3958 8.45982 12.6339C8.7128 12.872 9.01041 13.0952 9.35268 13.3036C9.69494 13.5119 10.0298 13.6905 10.3571 13.8393C11.4286 14.2857 12.1875 14.5387 12.6339 14.5982C13.0804 14.6577 13.3185 14.6429 13.3482 14.5536C13.6161 14.5238 13.9435 14.3973 14.3304 14.1741C14.7173 13.9509 14.9554 13.7054 15.0446 13.4375Z" fill="#1D7D4A"/>
</g>
<defs>
<clipPath id="clip0_44_479">
<rect width="20" height="20" fill="white"/>
</clipPath>
</defs>
</svg>
